<svg width="256" height="256" viewBox="0 0 256 256" fill="none" xmlns="http://www.w3.org/2000/svg">
  <rect width="256" height="256" rx="64" fill="#0B0B0B"/>
  <path d="M183 74H105C79.595 74 59 94.595 59 120V136C59 161.405 79.595 182 105 182H148C153.523 182 158 177.523 158 172C158 166.477 153.523 162 148 162H107C88.774 162 74 147.226 74 129V127C74 108.774 88.774 94 107 94H166V109H127C121.477 109 117 113.477 117 119C117 124.523 121.477 129 127 129H183C188.523 129 193 124.523 193 119V84C193 78.477 188.523 74 183 74Z" fill="#C8A15A"/>
  <circle cx="171" cy="101" r="10" fill="#F4EFE8"/>
</svg>
